<?xml version="1.0" standalone="no"?><!DOCTYPE svg PUBLIC "-//W3C//DTD SVG 1.1//EN" "http://www.w3.org/Graphics/SVG/1.1/DTD/svg11.dtd"><svg t="1593414759768" class="icon" viewBox="0 0 1025 1024" version="1.1" xmlns="http://www.w3.org/2000/svg" p-id="23570" width="128.125" height="128" xmlns:xlink="http://www.w3.org/1999/xlink"><defs><style type="text/css"></style></defs><path d="M864.000992 0l-704.001985 0C71.781382 0 0 71.781382 0 160.000278l0 703.999444c0 88.218896 71.781382 160.000278 160.000278 160.000278l704.001985 0c88.217626 0 159.999008-71.781382 159.999008-160.000278l0-703.999444C1024 71.780111 952.218618 0 864.000992 0L864.000992 0zM959.999127 863.998452c0 52.939214-43.062732 96.000675-95.998134 96.000675l-704.001985 0c-52.936673 0-95.999405-43.061461-95.999405-96.000675l0-703.999444c0-52.937943 43.062732-95.999405 95.999405-95.999405l704.001985 0c52.935403 0 95.998134 43.061461 95.998134 95.999405L959.999127 863.998452 959.999127 863.998452z" p-id="23571" fill="#707070"></path><path d="M324.250936 813.306376l0-582.436783 395.672827 0 0 98.529816L440.788342 329.39941l0 137.861715 240.946781 0 0 98.528546L440.788342 565.789671l0 247.516705L324.250936 813.306376z" p-id="23572" fill="#707070"></path></svg>