<?xml version="1.0" standalone="no"?><!DOCTYPE svg PUBLIC "-//W3C//DTD SVG 1.1//EN" "http://www.w3.org/Graphics/SVG/1.1/DTD/svg11.dtd"><svg t="1597755232153" class="icon" viewBox="0 0 1044 1024" version="1.1" xmlns="http://www.w3.org/2000/svg" p-id="1133" width="130.5" height="128" xmlns:xlink="http://www.w3.org/1999/xlink"><defs><style type="text/css"></style></defs><path d="M-4.0e-06 605.000114" p-id="1134"></path><path d="M1033.238404 573.434188c-4.330632 4.210905-9.937326 6.304589-15.544021 6.304589-5.835915 0-11.661597-2.26867-16.035208-6.785543l-68.046792-70.198805 0 433.339476c0 12.348236-10.002818 22.340821-22.340821 22.340821L149.471262 958.434725c-12.33698 0-22.340821-9.992585-22.340821-22.340821l0-433.339476-68.046792 70.198805c-8.574283 8.857738-22.744004 9.075703-31.580253 0.479931-8.868995-8.574283-9.086959-22.732747-0.50142-31.590486L514.324948 39.117926c1.603521-1.653663 3.620457-2.697435 5.626137-3.720741 0.620124-0.316202 1.091868-0.89437 1.738597-1.151219 5.504364-2.181689 11.863189-2.180666 17.366529 0.001023 0.594541 0.236384 1.026376 0.77055 1.599428 1.058099 2.061962 1.032516 4.119831 2.117221 5.762237 3.812839l487.322971 502.724753C1042.32434 550.700417 1042.106376 564.859905 1033.238404 573.434188zM657.849782 685.682691 402.893042 685.682691l0 228.551346L657.849782 914.234037 657.849782 685.682691z" p-id="1135"></path></svg>