<?xml version="1.0" standalone="no"?><!DOCTYPE svg PUBLIC "-//W3C//DTD SVG 1.1//EN" "http://www.w3.org/Graphics/SVG/1.1/DTD/svg11.dtd"><svg t="1593414899996" class="icon" viewBox="0 0 1024 1024" version="1.1" xmlns="http://www.w3.org/2000/svg" p-id="26086" xmlns:xlink="http://www.w3.org/1999/xlink" width="128" height="128"><defs><style type="text/css"></style></defs><path d="M440.890647 412.436026l170.662447 0 0 220.438995-170.662447 0 0-220.438995ZM440.890647 387.547753 440.890647 391.10322l3.555467 0L611.553094 391.10322l0-3.555467c0-9.798869-7.971359-17.777338-17.777338-17.777338l-135.107771 0C448.862006 369.770414 440.890647 377.748884 440.890647 387.547753zM440.890647 654.207826l0 3.555467c0 9.798869 7.971359 17.777338 17.777338 17.777338l135.107771 0c9.80598 0 17.777338-7.978469 17.777338-17.777338L611.553094 654.207826 444.446115 654.207826 440.890647 654.207826zM1007.532638 282.391241c-21.944347-126.27599-142.837358-246.415242-268.651136-266.972956-125.813778-20.557714-331.696688-20.557714-457.510467 0C155.550146 35.976 35.858882 156.115252 15.372277 282.391241c-20.479494 126.27599-20.479494 332.912659 0 459.195759 20.479494 126.27599 140.177868 246.415242 265.991647 266.972956 125.813778 20.557714 331.696688 20.557714 457.510467 0 125.813778-20.557714 246.706789-140.696966 268.651136-266.972956C1029.469874 615.311011 1029.469874 408.66723 1007.532638 282.391241zM222.727151 604.210841c-7.203378-26.203796-11.128614-53.75156-11.128614-82.216634 0-143.128906 97.348704-263.851255 229.29211-299.697479l0-34.025826 95.265201 41.392754L440.890647 271.063521l0-26.630453c-120.032588 35.227573-207.959303 146.286161-207.959303 277.561138 0 24.56117 3.100368 48.404136 8.888669 71.194684L222.727151 604.210841zM593.775756 348.437608c21.567467 0 39.110144 17.542677 39.110144 39.110144L632.8859 391.10322l0 24.17718 0 220.438995L632.8859 654.207826l0 3.555467c0 21.567467-17.542677 39.110144-39.110144 39.110144l-135.107771 0c-21.567467 0-39.110144-17.542677-39.110144-39.110144L419.557841 654.207826l0-18.488432 0-220.438995L419.557841 391.10322l0-3.555467c0-21.567467 17.542677-39.110144 39.110144-39.110144L593.775756 348.437608zM522.225525 832.621194c-88.026268 0-167.562079-36.855978-224.12957-95.898073l-27.36288 15.793387-11.78282-103.201004 83.482381 61.80825-25.272264 14.591639c52.428926 52.784472 124.967577 85.572996 205.065152 85.572996 80.673561 0 153.702867-33.229401 206.224235-86.668079l18.993308 10.965062C690.804468 795.274561 610.813557 832.621194 522.225525 832.621194zM767.339465 687.629223l11.78282-103.201004 22.257227 12.84946c6.499395-24.034961 10.133083-49.229005 10.133083-75.283472 0-133.536254-90.977307-246.180581-214.188482-279.345983l0-22.0439c135.107771 33.677389 235.521288 156.00681 235.521288 301.389882 0 29.965481-4.344782 58.914099-12.301919 86.340976l30.278363 17.478679L767.339465 687.629223z" p-id="26087" fill="#707070"></path></svg>