<?xml version="1.0" standalone="no"?><!DOCTYPE svg PUBLIC "-//W3C//DTD SVG 1.1//EN" "http://www.w3.org/Graphics/SVG/1.1/DTD/svg11.dtd"><svg t="1593510232564" class="icon" viewBox="0 0 1024 1024" version="1.1" xmlns="http://www.w3.org/2000/svg" p-id="4851" xmlns:xlink="http://www.w3.org/1999/xlink" width="128" height="128"><defs><style type="text/css"></style></defs><path d="M512 965.4912c250.4576 0 453.4912-203.0336 453.4912-453.4912S762.4576 58.5088 512 58.5088 58.5088 261.5424 58.5088 512 261.5424 965.4912 512 965.4912zM512 1024C229.2352 1024 0 794.7648 0 512S229.2352 0 512 0s512 229.2352 512 512-229.2352 512-512 512z m205.9008-536.9216L394.0352 268.8896a33.0368 33.0368 0 0 0-33.0368-2.1376c-10.5984 5.248-17.2288 15.6672-17.2288 27.072v436.3776c0 11.3664 6.6304 21.8112 17.2288 27.0464a32.9344 32.9344 0 0 0 33.024-2.1504l323.8784-218.176A30.08 30.08 0 0 0 731.4304 512c0-9.9072-5.0432-19.2-13.5296-24.9088z" p-id="4852" fill="#ffffff"></path></svg>