<?xml version="1.0" standalone="no"?><!DOCTYPE svg PUBLIC "-//W3C//DTD SVG 1.1//EN" "http://www.w3.org/Graphics/SVG/1.1/DTD/svg11.dtd"><svg t="1597905458570" class="icon" viewBox="0 0 1024 1024" version="1.1" xmlns="http://www.w3.org/2000/svg" p-id="1626" xmlns:xlink="http://www.w3.org/1999/xlink" width="128" height="128"><defs><style type="text/css"></style></defs><path d="M860.860433 364.616278c-19.071358-45.088918-46.36805-85.578074-81.132832-120.343879s-75.254961-62.062498-120.343879-81.133855c-46.692439-19.748786-96.278787-29.761837-147.383722-29.761837-51.104935 0-100.691283 10.014074-147.383722 29.761837-0.209778 0.089028-0.415462 0.184195-0.62524 0.273223l7.29515 17.231453 36.322254 87.593987 37.810141-15.678074-27.015284-65.149812c30.04427-8.623401 61.474097-13.101389 93.595678-13.101389 90.200348 0 175.002756 35.126009 238.784408 98.907661 63.780629 63.781652 98.906637 148.583037 98.906637 238.783385s-35.126009 175.002756-98.906637 238.784408c-63.781652 63.780629-148.583037 98.906637-238.784408 98.906637S336.997244 814.565037 273.216615 750.784408c-63.781652-63.781652-98.907661-148.583037-98.907661-238.784408 0-43.38409 8.148587-85.510536 23.680329-124.659161l-37.898145-15.284101c-17.726733 44.506656-26.714432 91.542926-26.714432 139.943262 0 51.104935 10.014074 100.691283 29.761837 147.383722 19.071358 45.088918 46.36805 85.578074 81.133855 120.343879s75.254961 62.061474 120.343879 81.132832c46.691415 19.74981 96.278787 29.762861 147.383722 29.762861 51.104935 0 100.691283-10.013051 147.383722-29.762861 45.088918-19.071358 85.578074-46.36805 120.343879-81.132832s62.061474-75.254961 81.132832-120.343879c19.74981-46.692439 29.762861-96.278787 29.762861-147.383722C890.623293 460.895065 880.610242 411.307693 860.860433 364.616278zM504.329297 589.097936 744.633315 377.234667 717.563796 346.531388 487.986073 548.937261 372.137579 432.361195 343.103312 461.213313 486.729453 605.743034 503.932254 588.647681Z" p-id="1627"></path></svg>