<?xml version="1.0" standalone="no"?><!DOCTYPE svg PUBLIC "-//W3C//DTD SVG 1.1//EN" "http://www.w3.org/Graphics/SVG/1.1/DTD/svg11.dtd"><svg t="1593415075803" class="icon" viewBox="0 0 1024 1024" version="1.1" xmlns="http://www.w3.org/2000/svg" p-id="27706" xmlns:xlink="http://www.w3.org/1999/xlink" width="128" height="128"><defs><style type="text/css"></style></defs><path d="M647.468373 508.491093v-36.072106a4.901547 4.901547 0 0 0-4.901546-4.901547H557.42464l99.67616-123.904H598.2208L509.99296 453.05856 429.73184 343.606613h-56.87296l90.794667 123.904H381.76768a4.901547 4.901547 0 0 0-4.901547 4.901547v36.072107a4.901547 4.901547 0 0 0 4.901547 4.901546h107.13088v42.25024H381.44a4.901547 4.901547 0 0 0-4.901547 4.901547v36.072107a4.901547 4.901547 0 0 0 4.901547 4.901546h107.45856v87.2448a4.901547 4.901547 0 0 0 4.901547 4.901547h36.072106a4.901547 4.901547 0 0 0 4.901547-4.901547v-87.2448h107.45856a4.901547 4.901547 0 0 0 4.901547-4.901546V560.5376a4.901547 4.901547 0 0 0-4.901547-4.901547H534.77376v-42.25024h107.793067c2.70336 0.006827 4.901547-2.19136 4.901546-4.89472z" p-id="27707" fill="#707070"></path><path d="M757.602987 26.774187H266.397013c-44.68736 0-80.91648 36.22912-80.91648 80.91648v808.61184c0 44.68736 36.22912 80.91648 80.91648 80.91648h491.205974c44.68736 0 80.91648-36.22912 80.91648-80.91648V107.690667c0-44.68736-36.22912-80.91648-80.91648-80.91648zM440.531627 102.516053c0-1.747627 1.419947-3.167573 3.167573-3.167573h139.85792c1.747627 0 3.167573 1.419947 3.167573 3.167573v21.661014c0 1.747627-1.419947 3.167573-3.167573 3.167573H443.6992c-1.747627 0-3.167573-1.419947-3.167573-3.167573v-21.661014z m350.795093 747.47904h-561.425067V198.888107h561.431894v651.106986z" p-id="27708" fill="#707070"></path></svg>